# xmcd
#
# Track frame offsets:
#	150
#	17833
#	45939
#	67307
#	86857
#	108732
#	127237
#	146459
#	161166
#	191187
#	214747
#	238868
#
# Disc length: 3424 seconds
#
# Revision: 1
# Processed by: cddbd v1.5.2PL0 Copyright (c) Steve Scherf et al.
# Submitted via: EasyCDDAExtractor 7.0.5.4
#
DISCID=bd0d5e0c
DTITLE=The Bellamy Brothers - Let Your Love Flow - The Dance Mix Album
DYEAR=2006
DGENRE=Country
TTITLE0=Let Your Love Flow
TTITLE1=Rip Off the Knob
TTITLE2=Shine Them Buckles
TTITLE3=Hard Way to Make an Easy Livin'
TTITLE4=Big Hair
TTITLE5=Cowboy Beat
TTITLE6=Twang Town
TTITLE7=Gotta Get a Little Crazy
TTITLE8=We Dared the Lightning
TTITLE9=Redneck Girl
TTITLE10=Dancin' Cowboys
TTITLE11=I Need More of You
EXTD=
EXTT0=
EXTT1=
EXTT2=
EXTT3=
EXTT4=
EXTT5=
EXTT6=
EXTT7=
EXTT8=
EXTT9=
EXTT10=
EXTT11=
PLAYORDER=
